<?xml version="1.0" encoding="utf-8"?>
<!-- Generator: Adobe Illustrator 27.6.0, SVG Export Plug-In . SVG Version: 6.00 Build 0)  -->
<svg version="1.1" xmlns="http://www.w3.org/2000/svg" xmlns:xlink="http://www.w3.org/1999/xlink" x="0px" y="0px"
	 viewBox="0 0 720 980" enable-background="new 0 0 720 980" xml:space="preserve">
<g id="Base">
	<g>
		<rect x="0" y="0" width="720" height="980"/>
	</g>
	<g>
		<path fill="#FFFFFF" d="M360,290c110.5,0,200,89.5,200,200s-89.5,200-200,200s-200-89.5-200-200S249.5,290,360,290 M360,288
			c-27.3,0-53.7,5.3-78.6,15.9c-24.1,10.2-45.7,24.7-64.2,43.3c-18.6,18.6-33.1,40.2-43.3,64.2C163.3,436.3,158,462.7,158,490
			c0,27.3,5.3,53.7,15.9,78.6c10.2,24.1,24.7,45.7,43.3,64.2c18.6,18.6,40.2,33.1,64.2,43.3c24.9,10.5,51.4,15.9,78.6,15.9
			s53.7-5.3,78.6-15.9c24.1-10.2,45.7-24.7,64.2-43.3c18.6-18.6,33.1-40.2,43.3-64.2c10.5-24.9,15.9-51.4,15.9-78.6
			c0-27.3-5.3-53.7-15.9-78.6c-10.2-24.1-24.7-45.7-43.3-64.2c-18.6-18.6-40.2-33.1-64.2-43.3C413.7,293.3,387.3,288,360,288
			L360,288z"/>
	</g>
	<g>
		<path fill="#FFFFFF" d="M360,444c25.4,0,46,20.6,46,46c0,25.4-20.6,46-46,46s-46-20.6-46-46C314,464.6,334.6,444,360,444 M360,440
			c-27.6,0-50,22.4-50,50c0,27.6,22.4,50,50,50s50-22.4,50-50C410,462.4,387.6,440,360,440L360,440z"/>
	</g>
	<g>
		<path fill="#FFFFFF" d="M360,419c39.2,0,71,31.8,71,71s-31.8,71-71,71s-71-31.8-71-71S320.8,419,360,419 M360,415
			c-41.4,0-75,33.6-75,75s33.6,75,75,75s75-33.6,75-75S401.4,415,360,415L360,415z"/>
	</g>
	<line fill="none" stroke="#FFFFFF" stroke-width="4" stroke-miterlimit="10" x1="360" y1="540.2" x2="360" y2="980"/>
	<line fill="none" stroke="#FFFFFF" stroke-width="4" stroke-miterlimit="10" x1="360" y1="0" x2="360" y2="440.2"/>
	<line fill="none" stroke="#FFFFFF" stroke-width="4" stroke-miterlimit="10" x1="403.1" y1="465.4" x2="720" y2="282"/>
	<line fill="none" stroke="#FFFFFF" stroke-width="4" stroke-miterlimit="10" x1="-1" y1="699" x2="316.5" y2="515.4"/>
	<line fill="none" stroke="#FFFFFF" stroke-width="4" stroke-miterlimit="10" x1="403" y1="515.3" x2="720" y2="699"/>
	<line fill="none" stroke="#FFFFFF" stroke-width="4" stroke-miterlimit="10" x1="-1" y1="282" x2="316.4" y2="465.3"/>
</g>
<g id="Physical">
	<polyline fill="none" stroke="#FFFFFF" stroke-width="4" stroke-miterlimit="10" points="720.1,920.9 289.3,490 720.1,59.1 	"/>
	<polyline fill="none" stroke="#FFFFFF" stroke-width="4" stroke-miterlimit="10" points="-1,922 430.7,490 0,59 	"/>
	<polyline fill="none" stroke="#FFFFFF" stroke-width="4" stroke-miterlimit="10" points="295,355 360,290 425,355 	"/>
	<polyline fill="none" stroke="#FFFFFF" stroke-width="4" stroke-miterlimit="10" points="425,625 360,690 295,625 	"/>
	<g>
	</g>
	<g>
	</g>
	<g>
	</g>
	<g>
	</g>
	<g>
	</g>
	<g>
	</g>
	<g>
	</g>
	<g>
	</g>
	<g>
	</g>
	<g>
	</g>
	<g>
	</g>
	<g>
	</g>
	<g>
	</g>
	<g>
	</g>
	<g>
	</g>
</g>
</svg>
