<?xml version="1.0" encoding="utf-8"?>
<!-- Generator: Adobe Illustrator 27.4.1, SVG Export Plug-In . SVG Version: 6.00 Build 0)  -->
<svg version="1.1" id="Layer_1" xmlns="http://www.w3.org/2000/svg" xmlns:xlink="http://www.w3.org/1999/xlink" x="0px" y="0px"
	 viewBox="0 0 500 500" style="enable-background:new 0 0 500 500;" xml:space="preserve">
<style type="text/css">
	.st0{fill:#083B4D;}
	.st1{fill:#EBB266;}
	.st2{fill:#CD9960;}
	.st3{fill:#FDA05F;}
	.st4{fill:#FEE5BD;}
	.st5{fill:#4E3937;}
	.st6{fill:#8F583C;}
	.st7{fill:#C5CBCD;}
	.st8{fill:#2695A4;}
</style>
<path class="st0" d="M363.53,358.79c-4.28,22.18-22.84,37.81-43.01,45.21c-47.59,0-90.17,0-137.76,0
	c-16.3-6.54-31.26-16.09-39.76-32c7,0,14.71-0.48,22,0l0-0.07c1,0.01,2.01-0.03,3.01,0.06l-0.01-0.06
	c52.27-0.01,99.29,0.56,151.69,0.78c11.94-0.03,23.89,0.42,35.82-0.43C361.78,371.46,359.98,362.45,363.53,358.79z"/>
<path class="st1" d="M357,159"/>
<path class="st1" d="M322.84,295.17c-0.15,0.68-1.14,0.6-1.82,0.52c-39.48,0.08-79.56-0.07-118.95-0.05C201,194,199,159,205,156
	c11.95-8.48,59.49,8.48,151-7"/>
<path class="st2" d="M374,167c0.38-8.44,0-21,0-35c0,11.98-13.65,14.24-24,18l-4,11L374,167z"/>
<path class="st0" d="M283.29,151.62c-40.89-1.08-119.44-1.94-150.4-28.99c-7.88-28.76,92.75-23.75,110.69-21.41
	C316.81,104.98,449.37,143.91,283.29,151.62z"/>
<path class="st3" d="M216.25,368.49 M222,372l-20-79c-26.08,0.58-55.02-0.88-81,0c-0.97,26.42,6.27,56.95,22,79"/>
<path class="st4" d="M121,122c0-0.58,0-1.17,0-1.75c10.19-48.02,216.79-25.33,247.28,2.18c24.21,24.35-33.69,32.72-49.64,33.33
	C158.49,166.7,212.61,108.5,202.08,295.64c-26.97-0.03-54.26,0.13-81.08,0.11c0.22-15.12-0.43-30.76,0.22-45.63
	c-0.38-0.3-0.38-1.7,0-2c-0.38-0.3-0.38-1.7,0-2c-0.37-11.49-0.44-27.19-0.02-40c-0.37-0.12-0.23-0.67,0-0.81
	c-0.21-0.3-0.41-1,0-1.19c-0.33-0.12-0.33-0.88,0-1c-0.38-13.63-0.41-29.08,0-43c-0.4-6.01-0.39-13.26,0.01-19
	c-0.35-0.1-0.35-0.9,0-1c-0.35-0.1-0.35-0.9,0-1c-0.35-0.1-0.35-0.9,0-1c-0.41-2.89-0.45-7.13,0.01-10
	C120.59,126.45,121.21,123.94,121,122z M273.79,151.66c148.74-2.74,87.95-38.14-13.56-48.68C240.62,99.65,125.3,91.2,132.9,122.63
	C162.81,148.8,234.38,149.59,273.79,151.66z"/>
<path class="st5" d="M356.7,353.14c2.7,0.3,5.4,0.6,8.1,0.9c-2.1,4.53-3.91,17.82-9.29,18.24c-11.93,0.86-23.88,0.4-35.82,0.43
	c-33.52-0.58-67.28,0.69-100.69-0.71c35.68-17.5,82.23-40.22,104-76C314.9,330.04,321.68,351.88,356.7,353.14z"/>
<path class="st6" d="M320.25,304.72C297.79,339.81,256.02,358.06,219,372c-10.81-23.55-16.36-50.37-16.7-76.22
	c39.91-0.37,80.27,0.03,120.2-0.04c0,0,0.04,0.12,0.04,0.12C322.1,298.88,321.29,301.86,320.25,304.72z"/>
<path class="st2" d="M368.26,166c0.13,23.05-0.22,106.69-0.05,129.73c-15.22,0.09-30.45-0.14-45.67,0.13l-0.04-0.12
	c0-27.74-0.19-66.74-0.19-94.74"/>
<path class="st7" d="M368.21,295.73c-0.15-28.95,0.23-57.95,0.01-86.91c-0.06-25.49-32.38-25.56-50.72-29.26
	c0.22-11.17,5.1-11.31,14.42-8.84c45.73,9.5,51.01,41.35,47.89,82.16c-0.95,33.74,9.26,87.59-34.47,97.46
	c0.01,0.16,0.03,0.33,0.04,0.49c3.68,1.01,7.98,0.66,11.32,2.31c-14.43-1.16-31.97-4.63-37.7-20.14c2.39,1.49,3.32,5.31,7,5
	c10.88-1.24,21.32,1.48,31.54-2.99l-0.01,0.01C371.29,327.23,367.69,309.03,368.21,295.73z"/>
<path class="st8" d="M352.17,336.95c-6.78,0.93-25.69,5.51-30.28,1.23c-9.18-12.14-1.31-28.81,0.65-42.32
	c5.48-0.07,10.96-0.25,16.43-0.1c0.71,13.78-3.4,37.94,14.88,40.01C353.2,336.03,351.52,335.83,352.17,336.95z"/>
<path class="st0" d="M317.5,179.55c12.23,2.96,25.8,2.1,36.99,8.74c-7.41,7.78-15,16.74-15.06,28.04c-0.23,1.86-0.61,2.13-2.5,2.16
	C321.07,213.98,314.13,194.56,317.5,179.55z"/>
<path class="st6" d="M353.85,335.77c-18.25-3.25-14.25-26.11-14.88-40.01c9.75-0.01,19.49-0.02,29.24-0.03
	c0.07,13.7,1.03,29.75-10.68,39.29c0,0,0.01-0.01,0.01-0.01C356.3,335.09,355.09,335.57,353.85,335.77z"/>
<path class="st8" d="M321,170c52-26,93,8,94.29,46.36c0.02,33.86,4.12,69.24-2.52,102.55c-8.37,28.25-40.88,40.53-67.39,31.91
	c-0.01-0.16-0.03-0.33-0.04-0.49c43.74-9.9,33.51-63.7,34.48-97.46C378,202,380,181,321,170z"/>
</svg>
