<?xml version="1.0" encoding="UTF-8"?>
<svg xmlns="http://www.w3.org/2000/svg" version="1.1" xmlns:xlink="http://www.w3.org/1999/xlink" viewBox="0 0 1000 1000">
  <defs>
    <style>
      .cls-1 {
        opacity: .9;
      }

      .cls-2 {
        stroke-miterlimit: 10;
        stroke-width: 5px;
      }

      .cls-2, .cls-3, .cls-4, .cls-5 {
        stroke: #fff;
      }

      .cls-2, .cls-6 {
        fill: #fff;
      }

      .cls-3, .cls-4, .cls-5 {
        fill: none;
        stroke-width: 16px;
      }

      .cls-3, .cls-4, .cls-5, .cls-6 {
        stroke-linecap: round;
        stroke-linejoin: round;
      }

      .cls-7 {
        fill: url(#radial-gradient);
      }

      .cls-4 {
        stroke-dasharray: 23.89 59.74;
      }

      .cls-5 {
        stroke-dasharray: 14.67 36.67;
      }

      .cls-8 {
        display: none;
      }

      .cls-6 {
        stroke: #eb7698;
        stroke-width: 12px;
      }
    </style>
    <radialGradient id="radial-gradient" cx="500" cy="497.91" fx="500" fy="497.91" r="701.6" gradientUnits="userSpaceOnUse">
      <stop offset="0" stop-color="#703959"/>
      <stop offset="1" stop-color="#0f001c"/>
    </radialGradient>
  </defs>
  <!-- Generator: Adobe Illustrator 28.6.0, SVG Export Plug-In . SVG Version: 1.2.0 Build 709)  -->
  <g>
    <g id="Layer_1" class="cls-8">
      <rect class="cls-7" width="1000" height="1000"/>
    </g>
    <g id="Layer_2" class="cls-1">
      <g>
        <path class="cls-6" d="M322,709.71h-144.72c-3.13,0-5.09-3.39-3.52-6.1l72.36-125.33,72.36-125.33c1.56-2.71,5.48-2.71,7.04,0l72.36,125.33,72.36,125.33c1.56,2.71-.39,6.1-3.52,6.1h-144.72Z"/>
        <path class="cls-6" d="M500,403.71h-144.72c-3.13,0-5.09-3.39-3.52-6.1l72.36-125.33,72.36-125.33c1.56-2.71,5.48-2.71,7.04,0l72.36,125.33,72.36,125.33c1.56,2.71-.39,6.1-3.52,6.1h-144.72Z"/>
        <path class="cls-6" d="M678,709.71h-144.72c-3.13,0-5.09-3.39-3.52-6.1l72.36-125.33,72.36-125.33c1.56-2.71,5.48-2.71,7.04,0l72.36,125.33,72.36,125.33c1.56,2.71-.39,6.1-3.52,6.1h-144.72Z"/>
        <path class="cls-6" d="M500,502.61h107.96c3.13,0,5.09,3.39,3.52,6.1l-53.98,93.49-53.98,93.49c-1.56,2.71-5.48,2.71-7.04,0l-53.98-93.49-53.98-93.49c-1.56-2.71.39-6.1,3.52-6.1h107.96Z"/>
        <rect class="cls-6" x="379.4" y="423.35" width="241.2" height="60.3" rx="4.07" ry="4.07"/>
      </g>
      <g>
        <path class="cls-2" d="M500.28,852.5c19.6-.02,39.25-1.74,58.4-5.11,1.9-.34,3.17-2.15,2.84-4.06-.34-1.9-2.15-3.18-4.06-2.84-18.75,3.31-37.99,4.99-57.18,5.01h-.28c-19,0-38.05-1.63-56.61-4.86-1.9-.33-3.72.95-4.05,2.85s.94,3.72,2.85,4.05c18.96,3.29,38.41,4.96,57.81,4.96h.28Z"/>
        <path class="cls-2" d="M191.42,629.93c-13.15-35.92-19.85-73.7-19.92-112.3,0-1.93-1.57-3.49-3.5-3.49h0c-1.93,0-3.5,1.57-3.49,3.51.07,39.42,6.92,78.01,20.35,114.69.52,1.42,1.86,2.3,3.29,2.3.4,0,.81-.07,1.2-.21,1.82-.67,2.75-2.67,2.08-4.49Z"/>
        <path class="cls-2" d="M247.48,301.43c-1.48-1.24-3.69-1.04-4.93.44-25.24,30.17-44.8,64.15-58.12,100.97-.66,1.82.28,3.82,2.1,4.48.39.14.8.21,1.19.21,1.43,0,2.78-.89,3.29-2.31,13.05-36.06,32.19-69.32,56.91-98.86,1.24-1.48,1.04-3.69-.44-4.93Z"/>
        <path class="cls-2" d="M756.79,727.48c-1.48-1.24-3.69-1.05-4.93.43-24.71,29.48-54.08,54.19-87.28,73.45-1.67.97-2.24,3.11-1.27,4.78.65,1.12,1.82,1.75,3.03,1.75.6,0,1.2-.15,1.75-.47,33.9-19.66,63.89-44.9,89.13-75,1.24-1.48,1.05-3.69-.43-4.93Z"/>
        <path class="cls-2" d="M835.5,515.99c0-1.93-1.57-3.49-3.5-3.49h-.01c-1.93,0-3.49,1.58-3.49,3.51v.99c0,38.52-6.6,76.24-19.63,112.11-.66,1.82.28,3.82,2.1,4.48.39.14.8.21,1.19.21,1.43,0,2.77-.88,3.29-2.31,13.3-36.64,20.05-75.17,20.05-114.5v-1.01Z"/>
        <path class="cls-2" d="M440.97,186.68c-38.62,6.86-75.42,20.34-109.38,40.09-1.67.97-2.24,3.11-1.27,4.79.65,1.12,1.82,1.74,3.03,1.74.6,0,1.2-.15,1.76-.47,33.24-19.33,69.27-32.54,107.08-39.25,1.9-.34,3.17-2.15,2.83-4.06-.34-1.9-2.15-3.17-4.06-2.83Z"/>
        <path class="cls-2" d="M556.26,193.3c37.85,6.53,73.95,19.57,107.29,38.74.55.32,1.15.47,1.74.47,1.21,0,2.39-.63,3.04-1.76.96-1.68.39-3.82-1.29-4.78-34.05-19.59-70.92-32.9-109.59-39.57-1.91-.33-3.72.95-4.04,2.85-.33,1.9.95,3.72,2.85,4.04Z"/>
        <path class="cls-2" d="M811.74,406.03c.4,0,.81-.07,1.21-.22,1.81-.67,2.75-2.68,2.08-4.49-13.5-36.75-33.21-70.61-58.58-100.66-1.25-1.48-3.46-1.66-4.93-.42-1.48,1.25-1.66,3.46-.42,4.93,24.84,29.42,44.14,62.58,57.36,98.56.52,1.42,1.86,2.29,3.29,2.29Z"/>
        <path class="cls-2" d="M336.14,801.78c-33.25-19.17-62.68-43.81-87.47-73.23-1.25-1.48-3.45-1.67-4.93-.42-1.48,1.25-1.67,3.45-.42,4.93,25.31,30.04,55.37,55.21,89.33,74.79.55.32,1.15.47,1.75.47,1.21,0,2.39-.63,3.04-1.75.97-1.67.39-3.81-1.28-4.78Z"/>
        <path class="cls-2" d="M367.04,904.47c-1.55-.53-3.1-1.07-4.64-1.62-1.04-.37-2.18.17-2.56,1.21-.37,1.04.17,2.18,1.21,2.56,1.56.56,3.12,1.1,4.69,1.64.21.07.43.11.65.11.83,0,1.61-.52,1.89-1.35.36-1.04-.2-2.18-1.24-2.54Z"/>
        <path class="cls-2" d="M323.93,146.92c.29,0,.58-.06.85-.19,5.87-2.78,11.88-5.46,17.87-7.95,1.02-.42,1.5-1.6,1.08-2.62-.42-1.02-1.6-1.5-2.62-1.08-6.05,2.52-12.12,5.22-18.04,8.03-1,.47-1.42,1.67-.95,2.66.34.72,1.06,1.14,1.81,1.14Z"/>
        <path class="cls-2" d="M467.53,925.27c-1.63-.13-3.26-.26-4.88-.41-1.11-.09-2.07.71-2.17,1.81-.1,1.1.71,2.07,1.81,2.17,1.64.15,3.28.29,4.93.42.05,0,.11,0,.16,0,1.03,0,1.91-.79,1.99-1.84.09-1.1-.74-2.06-1.84-2.15Z"/>
        <path class="cls-2" d="M524.7,108.2c6.5.39,13.07.93,19.53,1.63.07,0,.14.01.22.01,1.01,0,1.88-.76,1.99-1.79.12-1.1-.68-2.08-1.77-2.2-6.52-.7-13.15-1.25-19.72-1.64-1.12-.07-2.05.78-2.12,1.88-.07,1.1.77,2.05,1.88,2.12Z"/>
        <path class="cls-2" d="M378.92,125.57c.19,0,.39-.03.59-.09,1.56-.48,3.12-.95,4.69-1.41,1.06-.31,1.67-1.42,1.35-2.48-.31-1.06-1.42-1.67-2.48-1.35-1.58.47-3.16.94-4.74,1.43-1.06.32-1.65,1.44-1.32,2.5.26.86,1.06,1.41,1.91,1.41Z"/>
        <path class="cls-2" d="M526.29,925.71c-6.47.41-13.06.67-19.59.78-1.1.02-1.99.93-1.97,2.03.02,1.09.91,1.97,2,1.97h.03c6.59-.11,13.24-.37,19.78-.78,1.1-.07,1.94-1.02,1.87-2.12-.07-1.1-1.03-1.95-2.12-1.87Z"/>
        <path class="cls-2" d="M570.06,920.57c-1.61.28-3.22.54-4.83.8-1.09.17-1.83,1.2-1.66,2.29.16.98,1.01,1.68,1.97,1.68.1,0,.21,0,.32-.03,1.63-.26,3.26-.53,4.88-.81,1.09-.19,1.82-1.22,1.63-2.31-.19-1.09-1.21-1.82-2.31-1.63Z"/>
        <path class="cls-2" d="M480.52,107.92s.06,0,.09,0c1.63-.08,3.26-.14,4.9-.2,1.1-.04,1.97-.96,1.93-2.07-.04-1.1-.97-1.95-2.07-1.93-1.65.06-3.3.12-4.94.2-1.1.05-1.96.99-1.91,2.09.05,1.07.93,1.91,2,1.91Z"/>
        <path class="cls-2" d="M627.08,906.44c-6.18,2.02-12.5,3.91-18.77,5.63-1.07.29-1.69,1.39-1.4,2.46.24.89,1.05,1.47,1.93,1.47.17,0,.35-.02.53-.07,6.34-1.73,12.71-3.64,18.96-5.68,1.05-.34,1.62-1.47,1.28-2.52-.34-1.05-1.47-1.62-2.52-1.28Z"/>
        <path class="cls-2" d="M423.84,919.47c-6.4-1.2-12.85-2.58-19.17-4.08-1.07-.25-2.15.41-2.41,1.48-.26,1.07.41,2.15,1.48,2.41,6.38,1.52,12.89,2.91,19.35,4.12.12.02.25.03.37.03.94,0,1.78-.67,1.96-1.63.2-1.09-.51-2.13-1.6-2.34Z"/>
        <path class="cls-2" d="M421.9,114.87c.13,0,.25-.01.38-.04,6.38-1.23,12.89-2.31,19.33-3.23,1.09-.16,1.85-1.17,1.7-2.26-.16-1.09-1.17-1.85-2.26-1.7-6.5.93-13.07,2.03-19.52,3.27-1.08.21-1.79,1.26-1.59,2.34.18.96,1.02,1.62,1.96,1.62Z"/>
        <path class="cls-2" d="M326.16,887.92c-5.89-2.77-11.8-5.71-17.56-8.77-.98-.52-2.19-.14-2.7.83-.52.98-.14,2.19.83,2.7,5.82,3.08,11.79,6.06,17.73,8.85.27.13.56.19.85.19.75,0,1.47-.42,1.81-1.15.47-1,.04-2.19-.96-2.66Z"/>
        <path class="cls-2" d="M112.57,650.08c-.36-1.04-1.5-1.6-2.54-1.24-1.04.36-1.6,1.5-1.24,2.54,2.13,6.21,4.45,12.46,6.88,18.56.31.78,1.06,1.26,1.86,1.26.25,0,.5-.05.74-.14,1.03-.41,1.53-1.57,1.12-2.6-2.41-6.04-4.7-12.23-6.81-18.38Z"/>
        <path class="cls-2" d="M100.54,607.68c-.24-1.08-1.31-1.75-2.39-1.51-1.08.24-1.75,1.31-1.51,2.39.36,1.61.74,3.22,1.12,4.82.22.92,1.04,1.54,1.94,1.54.15,0,.31-.02.47-.05,1.07-.26,1.74-1.33,1.48-2.41-.38-1.59-.75-3.18-1.11-4.77Z"/>
        <path class="cls-2" d="M125.44,346.25c-1.01-.45-2.19,0-2.65,1-2.71,6-5.3,12.15-7.71,18.27-.4,1.03.1,2.19,1.13,2.59.24.09.49.14.73.14.8,0,1.55-.48,1.86-1.27,2.39-6.06,4.96-12.15,7.64-18.09.45-1.01,0-2.19-1-2.65Z"/>
        <path class="cls-2" d="M104.85,401.62c-1.06-.3-2.17.31-2.47,1.37-.45,1.58-.9,3.17-1.33,4.77-.29,1.07.34,2.17,1.4,2.46.18.05.35.07.53.07.88,0,1.69-.58,1.93-1.47.43-1.58.87-3.15,1.32-4.72.3-1.06-.31-2.17-1.37-2.47Z"/>
        <path class="cls-2" d="M94.78,444.75c-1.09-.18-2.12.54-2.31,1.63-1.11,6.47-2.08,13.06-2.89,19.58-.14,1.1.64,2.09,1.74,2.23.08.01.17.02.25.02,1,0,1.86-.74,1.98-1.76.79-6.46,1.76-12.98,2.86-19.39.19-1.09-.54-2.12-1.63-2.31Z"/>
        <path class="cls-2" d="M88.52,512.39c1.09,0,1.98-.88,2-1.97.03-1.64.06-3.27.11-4.9.03-1.1-.84-2.02-1.94-2.05-.02,0-.04,0-.06,0-1.08,0-1.97.86-2,1.95-.04,1.65-.08,3.3-.11,4.95-.02,1.1.86,2.01,1.97,2.03h.03Z"/>
        <path class="cls-2" d="M91.74,549.59c-.09-1.1-1.06-1.92-2.15-1.84-1.1.09-1.92,1.05-1.84,2.15.52,6.55,1.2,13.17,2.02,19.68.13,1.01.99,1.75,1.98,1.75.08,0,.17,0,.25-.02,1.1-.14,1.87-1.14,1.73-2.24-.82-6.45-1.49-13-2-19.49Z"/>
        <path class="cls-2" d="M165.37,277.38c.35.26.77.38,1.17.38.62,0,1.23-.29,1.62-.83,3.82-5.27,7.82-10.52,11.88-15.6.69-.86.55-2.12-.31-2.81-.86-.69-2.12-.55-2.81.31-4.11,5.13-8.14,10.43-12,15.75-.65.89-.45,2.15.45,2.79Z"/>
        <path class="cls-2" d="M193.62,788.76c-.73-.83-2-.9-2.82-.17-.83.73-.9,2-.17,2.82,1.09,1.23,2.2,2.46,3.3,3.68.39.43.94.65,1.48.65.48,0,.96-.17,1.34-.52.82-.74.88-2.01.13-2.83-1.1-1.21-2.19-2.42-3.27-3.64Z"/>
        <path class="cls-2" d="M237.03,202.43c.45,0,.9-.15,1.28-.46,5-4.16,10.17-8.25,15.35-12.16.88-.67,1.06-1.92.39-2.8-.67-.88-1.92-1.06-2.8-.39-5.24,3.95-10.45,8.08-15.5,12.28-.85.71-.97,1.97-.26,2.82.4.48.96.72,1.54.72Z"/>
        <path class="cls-2" d="M224.61,820.12c-.82-.74-2.08-.68-2.83.13-.74.82-.68,2.08.13,2.83,4.86,4.42,9.9,8.78,14.96,12.96.37.31.82.46,1.27.46.58,0,1.15-.25,1.54-.73.7-.85.58-2.11-.27-2.82-5.02-4.14-10-8.46-14.82-12.84Z"/>
        <path class="cls-2" d="M285,168.03c.36,0,.72-.1,1.04-.3,1.39-.85,2.78-1.7,4.18-2.53.95-.57,1.26-1.79.69-2.74-.57-.95-1.79-1.26-2.74-.69-1.41.84-2.82,1.7-4.22,2.56-.94.58-1.24,1.81-.66,2.75.38.62,1.03.95,1.71.95Z"/>
        <path class="cls-2" d="M135.62,704.12c-.5-.98-1.71-1.37-2.69-.86-.98.5-1.37,1.71-.86,2.69.75,1.46,1.51,2.92,2.28,4.37.36.68,1.05,1.06,1.77,1.06.32,0,.64-.07.93-.23.98-.52,1.35-1.73.83-2.7-.76-1.44-1.52-2.88-2.26-4.33Z"/>
        <path class="cls-2" d="M204.53,232.54c.52,0,1.04-.2,1.44-.61,1.14-1.17,2.28-2.34,3.43-3.5.78-.78.77-2.05-.01-2.83-.78-.78-2.05-.77-2.83.01-1.16,1.17-2.32,2.35-3.47,3.53-.77.79-.75,2.06.04,2.83.39.38.89.56,1.39.56Z"/>
        <path class="cls-2" d="M157.86,742.16c-.61-.92-1.85-1.18-2.77-.57-.92.61-1.18,1.85-.57,2.77,3.61,5.47,7.4,10.94,11.28,16.24.39.54,1,.82,1.62.82.41,0,.82-.12,1.18-.38.89-.65,1.09-1.9.44-2.79-3.84-5.25-7.59-10.67-11.17-16.08Z"/>
        <path class="cls-2" d="M146,307c-.95-.56-2.18-.24-2.74.71-.84,1.42-1.67,2.85-2.49,4.29-.55.96-.22,2.18.74,2.73.31.18.65.26.99.26.69,0,1.37-.36,1.74-1.01.81-1.42,1.63-2.84,2.46-4.25.56-.95.24-2.18-.71-2.74Z"/>
        <path class="cls-2" d="M274.88,859.17c-1.37-.9-2.73-1.81-4.08-2.73-.91-.62-2.16-.38-2.78.54-.62.92-.38,2.16.54,2.78,1.37.93,2.74,1.84,4.12,2.75.34.22.72.33,1.1.33.65,0,1.29-.32,1.67-.9.61-.92.35-2.16-.57-2.77Z"/>
        <path class="cls-2" d="M755.67,836.94c-1.27,1.02-2.55,2.03-3.84,3.04-.87.68-1.02,1.94-.34,2.81.39.5.98.77,1.58.77.43,0,.87-.14,1.23-.42,1.3-1.01,2.59-2.04,3.88-3.07.86-.69,1-1.95.31-2.81-.69-.86-1.95-1-2.81-.31Z"/>
        <path class="cls-2" d="M861.86,713.18c-.97-.53-2.18-.18-2.72.79-3.13,5.7-6.45,11.41-9.86,16.96-.58.94-.28,2.17.66,2.75.33.2.69.3,1.04.3.67,0,1.33-.34,1.71-.95,3.45-5.61,6.8-11.38,9.96-17.13.53-.97.18-2.18-.79-2.72Z"/>
        <path class="cls-2" d="M830.01,762.93c-.88-.67-2.14-.49-2.8.39-.98,1.3-1.98,2.6-2.98,3.9-.68.87-.52,2.13.36,2.81.36.28.79.42,1.22.42.6,0,1.19-.27,1.58-.78,1.01-1.31,2.01-2.62,3.01-3.94.67-.88.49-2.14-.39-2.8Z"/>
        <path class="cls-2" d="M907.57,476.65c.1,1.03.97,1.81,1.99,1.81.06,0,.13,0,.2,0,1.1-.11,1.9-1.09,1.8-2.19-.16-1.64-.33-3.28-.51-4.92-.12-1.1-1.1-1.89-2.21-1.77-1.1.12-1.89,1.11-1.77,2.21.18,1.62.35,3.25.51,4.88Z"/>
        <path class="cls-2" d="M810.93,250.45c.4.46.96.7,1.52.7.46,0,.92-.16,1.3-.48.84-.72.93-1.98.21-2.82-4.28-4.98-8.73-9.93-13.24-14.7-.76-.8-2.02-.84-2.83-.08-.8.76-.84,2.02-.08,2.83,4.46,4.73,8.87,9.63,13.11,14.56Z"/>
        <path class="cls-2" d="M718.58,170.61c5.5,3.48,11,7.14,16.33,10.88.35.25.75.36,1.15.36.63,0,1.25-.3,1.64-.85.63-.9.42-2.15-.49-2.79-5.38-3.77-10.93-7.47-16.48-10.98-.93-.59-2.17-.31-2.76.62s-.31,2.17.62,2.76Z"/>
        <path class="cls-2" d="M798.82,797.05c-4.45,4.75-9.07,9.45-13.74,13.98-.79.77-.81,2.04-.04,2.83.39.4.91.61,1.44.61s1-.19,1.39-.56c4.71-4.57,9.38-9.32,13.88-14.11.76-.81.71-2.07-.09-2.83-.8-.76-2.07-.72-2.83.09Z"/>
        <path class="cls-2" d="M769.59,208.71c.38.33.85.5,1.32.5.56,0,1.11-.23,1.51-.68.73-.83.64-2.09-.19-2.82-1.24-1.09-2.49-2.17-3.75-3.24-.84-.72-2.1-.62-2.82.22-.72.84-.62,2.1.22,2.82,1.24,1.06,2.48,2.13,3.71,3.21Z"/>
        <path class="cls-2" d="M841.1,283.13c-.93-1.36-1.87-2.71-2.82-4.05-.63-.9-1.88-1.12-2.79-.48-.9.64-1.12,1.88-.48,2.79.94,1.33,1.87,2.67,2.79,4.02.39.56,1.01.87,1.65.87.39,0,.79-.11,1.13-.35.91-.63,1.14-1.87.52-2.78Z"/>
        <path class="cls-2" d="M907.68,573.56c-1.08-.15-2.11.61-2.26,1.7-.23,1.62-.47,3.23-.72,4.85-.17,1.09.58,2.11,1.67,2.28.1.02.21.02.31.02.97,0,1.82-.71,1.97-1.69.25-1.63.49-3.26.73-4.9.16-1.09-.61-2.11-1.7-2.26Z"/>
        <path class="cls-2" d="M582.94,115.87c1.6.33,3.2.67,4.79,1.02.14.03.29.05.43.05.92,0,1.75-.64,1.95-1.57.24-1.08-.45-2.15-1.53-2.38-1.61-.35-3.22-.69-4.84-1.03-1.09-.22-2.14.47-2.36,1.56-.22,1.08.47,2.14,1.56,2.36Z"/>
        <path class="cls-2" d="M904.85,432.26c-1.34-6.42-2.85-12.91-4.5-19.27-.28-1.07-1.36-1.71-2.44-1.43-1.07.28-1.71,1.37-1.44,2.44,1.63,6.3,3.13,12.72,4.46,19.08.2.94,1.03,1.59,1.96,1.59.13,0,.27-.01.41-.04,1.08-.23,1.78-1.28,1.55-2.37Z"/>
        <path class="cls-2" d="M880.88,673.16c-1.02-.42-2.19.06-2.61,1.08-.63,1.51-1.27,3.02-1.92,4.53-.44,1.01.03,2.19,1.05,2.63.26.11.53.16.79.16.77,0,1.51-.45,1.84-1.21.65-1.52,1.3-3.04,1.94-4.57.42-1.02-.06-2.19-1.08-2.62Z"/>
        <path class="cls-2" d="M861.92,316.78c-.54-.97-1.75-1.31-2.72-.78-.97.54-1.32,1.75-.78,2.72,3.15,5.68,6.2,11.51,9.07,17.33.35.71,1.06,1.12,1.8,1.12.3,0,.6-.07.88-.21.99-.49,1.4-1.69.91-2.68-2.9-5.88-5.98-11.77-9.16-17.5Z"/>
        <path class="cls-2" d="M886.86,370.57c-.39-1.03-1.55-1.55-2.58-1.16-1.03.39-1.55,1.55-1.16,2.58.58,1.53,1.15,3.06,1.71,4.59.3.81,1.06,1.31,1.88,1.31.23,0,.46-.04.69-.12,1.04-.38,1.57-1.53,1.19-2.56-.57-1.55-1.14-3.1-1.73-4.64Z"/>
        <path class="cls-2" d="M899.29,617.06c-1.07-.28-2.16.37-2.43,1.44-1.61,6.3-3.39,12.65-5.3,18.87-.32,1.06.27,2.17,1.33,2.5.2.06.39.09.59.09.86,0,1.65-.55,1.91-1.41,1.93-6.28,3.73-12.69,5.35-19.05.27-1.07-.37-2.16-1.44-2.43Z"/>
        <path class="cls-2" d="M913.53,515.77c0-1.1-.9-1.99-2-1.99h0c-1.1,0-2,.9-1.99,2.01v1.22c0,6.41-.15,12.88-.44,19.25-.05,1.1.8,2.04,1.91,2.09.03,0,.06,0,.09,0,1.06,0,1.95-.84,2-1.91.3-6.42.45-12.96.45-19.43v-1.23Z"/>
        <path class="cls-2" d="M668.17,890.53c-1.48.67-2.97,1.33-4.46,1.98-1.01.44-1.47,1.62-1.03,2.63.33.75,1.06,1.2,1.83,1.2.27,0,.54-.05.8-.17,1.51-.66,3.01-1.33,4.51-2,1.01-.45,1.46-1.64,1-2.65-.46-1.01-1.64-1.45-2.65-1Z"/>
        <path class="cls-2" d="M625.57,127.07c6.2,2,12.45,4.17,18.55,6.47.23.09.47.13.7.13.81,0,1.57-.49,1.87-1.3.39-1.03-.13-2.19-1.17-2.58-6.17-2.32-12.47-4.52-18.73-6.53-1.05-.34-2.18.24-2.52,1.29-.34,1.05.24,2.18,1.29,2.52Z"/>
        <path class="cls-2" d="M680.09,149.08c1.47.72,2.94,1.45,4.4,2.19.29.15.6.22.9.22.73,0,1.43-.4,1.79-1.1.5-.99.1-2.19-.88-2.69-1.47-.75-2.96-1.48-4.44-2.21-.99-.49-2.19-.08-2.68.92-.49.99-.08,2.19.92,2.68Z"/>
        <path class="cls-2" d="M719.83,862.6c-5.48,3.49-11.11,6.9-16.75,10.12-.96.55-1.29,1.77-.74,2.73.37.65,1.04,1.01,1.74,1.01.34,0,.68-.08.99-.26,5.7-3.26,11.39-6.7,16.92-10.22.93-.59,1.21-1.83.61-2.76s-1.83-1.21-2.76-.61Z"/>
        <path class="cls-2" d="M424.01,155.81c.07,0,.14,0,.21-.02,1.96-.41,3.93-.8,5.9-1.18.54-.1.9-.63.79-1.17-.1-.54-.62-.9-1.17-.79-1.98.38-3.96.78-5.94,1.19-.54.11-.89.64-.77,1.18.1.47.51.8.98.8Z"/>
        <path class="cls-2" d="M201.04,299.95c.31,0,.61-.14.81-.41,1.19-1.62,2.38-3.23,3.6-4.84.33-.44.25-1.07-.19-1.4-.44-.33-1.07-.25-1.4.19-1.22,1.61-2.42,3.23-3.62,4.86-.33.45-.23,1.07.22,1.4.18.13.38.19.59.19Z"/>
        <path class="cls-2" d="M855.39,620.26c.09.03.18.04.28.04.43,0,.83-.29.96-.72.56-1.94,1.1-3.88,1.62-5.83.14-.53-.17-1.08-.71-1.23-.53-.14-1.08.17-1.23.71-.52,1.94-1.06,3.87-1.61,5.8-.15.53.15,1.08.69,1.24Z"/>
        <path class="cls-2" d="M853.36,410.36c.13.43.53.71.96.71.1,0,.19-.01.29-.04.53-.16.83-.72.67-1.25-.58-1.93-1.18-3.86-1.8-5.78-.17-.53-.73-.82-1.26-.65-.53.17-.82.73-.65,1.26.61,1.91,1.21,3.83,1.79,5.75Z"/>
        <path class="cls-2" d="M241.18,254c1.43-1.41,2.87-2.8,4.33-4.19.4-.38.42-1.01.03-1.41-.38-.4-1.01-.42-1.41-.03-1.46,1.39-2.91,2.79-4.35,4.21-.39.39-.4,1.02-.01,1.41.2.2.45.3.71.3s.51-.1.7-.29Z"/>
        <path class="cls-2" d="M813.89,322.93c1.05,1.7,2.1,3.41,3.12,5.13.19.31.52.49.86.49.17,0,.35-.05.51-.14.47-.28.63-.9.35-1.37-1.03-1.73-2.08-3.45-3.14-5.16-.29-.47-.91-.61-1.38-.32s-.61.91-.32,1.38Z"/>
        <path class="cls-2" d="M831.37,354.48c.17.35.53.56.9.56.15,0,.3-.03.44-.1.5-.24.7-.84.46-1.34-.89-1.81-1.79-3.61-2.71-5.4-.25-.49-.85-.69-1.35-.43-.49.25-.69.85-.43,1.35.91,1.78,1.81,3.57,2.69,5.37Z"/>
        <path class="cls-2" d="M219.83,276.31c.28,0,.56-.12.76-.35,1.31-1.52,2.64-3.03,3.97-4.53.37-.41.33-1.04-.08-1.41-.41-.37-1.04-.33-1.41.08-1.34,1.51-2.68,3.02-4,4.55-.36.42-.31,1.05.1,1.41.19.16.42.24.65.24Z"/>
        <path class="cls-2" d="M171.41,344.58c-.94,1.79-1.87,3.59-2.78,5.4-.25.49-.05,1.09.44,1.34.14.07.3.11.45.11.37,0,.72-.2.89-.55.91-1.8,1.83-3.59,2.77-5.37.26-.49.07-1.09-.42-1.35-.49-.26-1.09-.07-1.35.42Z"/>
        <path class="cls-2" d="M573.69,155.37c1.97.4,3.93.81,5.89,1.24.07.02.14.02.22.02.46,0,.87-.32.98-.79.12-.54-.22-1.07-.76-1.19-1.97-.43-3.94-.85-5.92-1.25-.54-.11-1.07.24-1.18.78-.11.54.24,1.07.78,1.18Z"/>
        <path class="cls-2" d="M160.29,666.34c.81,1.84,1.64,3.68,2.48,5.5.17.37.53.58.91.58.14,0,.28-.03.42-.09.5-.23.72-.82.49-1.33-.84-1.82-1.66-3.64-2.46-5.47-.22-.5-.81-.73-1.32-.51-.51.22-.73.81-.51,1.32Z"/>
        <path class="cls-2" d="M602.91,162.55c1.93.56,3.85,1.13,5.77,1.72.1.03.2.04.29.04.43,0,.82-.28.96-.71.16-.53-.13-1.09-.66-1.25-1.93-.59-3.86-1.17-5.8-1.73-.53-.15-1.08.15-1.24.68-.15.53.15,1.09.68,1.24Z"/>
        <path class="cls-2" d="M543.1,149.49c-.07.55.33,1.05.88,1.11,2,.24,3.99.49,5.97.76.04,0,.09,0,.13,0,.49,0,.92-.36.99-.87.07-.55-.31-1.05-.86-1.12-2-.27-4-.52-6.01-.76-.55-.06-1.05.33-1.11.88Z"/>
        <path class="cls-2" d="M632.16,170.23c-.52-.2-1.09.06-1.29.58s.06,1.09.58,1.29c1.88.72,3.76,1.45,5.63,2.2.12.05.25.07.37.07.4,0,.77-.24.93-.63.21-.51-.04-1.09-.56-1.3-1.88-.75-3.76-1.49-5.66-2.21Z"/>
        <path class="cls-2" d="M618.96,866.4c-1.9.65-3.8,1.28-5.72,1.89-.53.17-.81.73-.65,1.26.14.42.53.69.95.69.1,0,.21-.02.31-.05,1.92-.62,3.84-1.25,5.75-1.91.52-.18.8-.75.62-1.27-.18-.52-.75-.81-1.27-.62Z"/>
        <path class="cls-2" d="M183.71,324.89c.16.1.34.15.52.15.34,0,.67-.17.85-.48,1.05-1.72,2.11-3.42,3.19-5.12.3-.47.16-1.08-.31-1.38-.47-.3-1.08-.16-1.38.31-1.08,1.71-2.15,3.42-3.21,5.15-.29.47-.14,1.09.33,1.38Z"/>
        <path class="cls-2" d="M366.22,172.93c.12,0,.24-.02.36-.07,1.86-.72,3.73-1.43,5.61-2.12.52-.19.78-.77.59-1.28-.19-.52-.77-.78-1.28-.59-1.89.7-3.77,1.41-5.64,2.14-.51.2-.77.78-.57,1.29.15.4.53.64.93.64Z"/>
        <path class="cls-2" d="M685.42,196.74c-.28.48-.12,1.09.36,1.37,1.74,1.01,3.47,2.04,5.18,3.08.16.1.34.15.52.15.34,0,.67-.17.86-.48.29-.47.13-1.09-.34-1.37-1.73-1.05-3.47-2.08-5.21-3.1-.48-.28-1.09-.12-1.37.36Z"/>
        <path class="cls-2" d="M338.17,183.07c-.5.24-.7.84-.46,1.34.17.36.53.56.9.56.15,0,.3-.03.44-.1,1.8-.87,3.61-1.73,5.42-2.58.5-.23.72-.83.48-1.33-.23-.5-.83-.72-1.33-.48-1.83.85-3.64,1.71-5.45,2.59Z"/>
        <path class="cls-2" d="M761.78,256.94c.2.2.45.3.71.3s.51-.1.71-.29c.39-.39.39-1.02,0-1.41-1.42-1.43-2.86-2.85-4.3-4.26-.39-.38-1.03-.38-1.41.02-.39.4-.38,1.03.02,1.41,1.44,1.4,2.86,2.81,4.28,4.24Z"/>
        <path class="cls-2" d="M734.98,231.18c-.35.43-.29,1.06.13,1.41,1.55,1.28,3.08,2.57,4.61,3.88.19.16.42.24.65.24.28,0,.56-.12.76-.35.36-.42.31-1.05-.11-1.41-1.53-1.31-3.08-2.61-4.63-3.9-.42-.35-1.05-.29-1.41.13Z"/>
        <path class="cls-2" d="M716.06,217.84c.18.13.38.19.58.19.31,0,.62-.14.81-.41.32-.45.22-1.07-.22-1.4-1.64-1.18-3.28-2.36-4.94-3.51-.45-.32-1.08-.21-1.39.25-.32.45-.21,1.08.25,1.39,1.65,1.15,3.29,2.32,4.91,3.49Z"/>
        <path class="cls-2" d="M405.43,873.76c-.53-.14-1.08.18-1.22.71-.14.53.18,1.08.71,1.22,1.95.52,3.9,1.02,5.87,1.5.08.02.16.03.24.03.45,0,.86-.3.97-.76.13-.54-.19-1.08-.73-1.21-1.95-.48-3.9-.98-5.83-1.49Z"/>
        <path class="cls-2" d="M394.75,163.19c.09,0,.19-.01.28-.04,1.92-.57,3.85-1.12,5.79-1.66.53-.15.84-.7.69-1.23-.15-.53-.7-.84-1.23-.7-1.95.54-3.89,1.1-5.82,1.67-.53.16-.83.71-.67,1.24.13.43.53.72.96.72Z"/>
        <path class="cls-2" d="M156.64,378.87c.12.05.25.07.38.07.4,0,.77-.24.93-.62.76-1.87,1.53-3.73,2.32-5.58.22-.51-.02-1.1-.53-1.31-.51-.22-1.1.02-1.31.53-.79,1.86-1.57,3.73-2.33,5.61-.21.51.04,1.1.55,1.3Z"/>
        <path class="cls-2" d="M800.56,302.9c.19.27.5.42.81.42.2,0,.4-.06.58-.19.45-.32.55-.95.23-1.4-1.17-1.64-2.36-3.27-3.55-4.89-.33-.44-.95-.54-1.4-.21-.44.33-.54.95-.21,1.4,1.19,1.61,2.37,3.23,3.53,4.87Z"/>
        <path class="cls-2" d="M782.11,279.14c.2.23.48.35.77.35.23,0,.46-.08.64-.24.42-.36.48-.99.12-1.41-1.3-1.54-2.62-3.07-3.94-4.59-.36-.42-1-.46-1.41-.1-.42.36-.46.99-.1,1.41,1.32,1.51,2.62,3.03,3.92,4.57Z"/>
        <path class="cls-2" d="M659.15,183.99c1.82.87,3.62,1.75,5.42,2.65.14.07.3.11.45.11.37,0,.72-.2.9-.55.25-.49.05-1.09-.45-1.34-1.81-.9-3.63-1.79-5.45-2.67-.5-.24-1.1-.03-1.33.47-.24.5-.03,1.1.47,1.33Z"/>
        <path class="cls-2" d="M312.05,199.24c.17,0,.35-.04.51-.14,1.72-1.02,3.46-2.02,5.2-3.01.48-.27.65-.88.37-1.36-.27-.48-.88-.65-1.36-.37-1.75,1-3.49,2.01-5.23,3.03-.48.28-.63.89-.35,1.37.19.32.52.49.86.49Z"/>
        <path class="cls-2" d="M453.78,150.85s.08,0,.12,0c1.99-.25,3.98-.48,5.98-.7.55-.06.95-.55.89-1.1-.06-.55-.55-.94-1.1-.89-2.01.22-4.01.45-6.01.7-.55.07-.94.57-.87,1.12.06.51.49.88.99.88Z"/>
        <path class="cls-2" d="M286.16,213.8c-.45.32-.56.94-.24,1.39.19.28.5.42.82.42.2,0,.4-.06.58-.18,1.64-1.16,3.28-2.3,4.94-3.43.46-.31.57-.93.26-1.39-.31-.46-.93-.57-1.39-.26-1.66,1.14-3.32,2.29-4.96,3.45Z"/>
        <path class="cls-2" d="M262.82,234.01c.23,0,.45-.08.64-.23,1.54-1.29,3.09-2.56,4.65-3.82.43-.35.5-.98.15-1.41-.35-.43-.98-.5-1.41-.15-1.57,1.27-3.13,2.55-4.67,3.84-.42.35-.48.98-.13,1.41.2.24.48.36.77.36Z"/>
        <path class="cls-2" d="M226.14,765.8c-.41.37-.44,1.01-.06,1.41,1.36,1.49,2.73,2.97,4.12,4.43.2.21.46.31.73.31.25,0,.49-.09.69-.27.4-.38.42-1.01.04-1.41-1.38-1.46-2.74-2.93-4.1-4.41-.37-.41-1.01-.44-1.41-.06Z"/>
        <path class="cls-2" d="M837.27,669.37c-.5-.23-1.09,0-1.32.5-.83,1.83-1.68,3.66-2.55,5.47-.24.5-.03,1.09.47,1.33.14.07.29.1.43.1.37,0,.73-.21.9-.57.87-1.83,1.72-3.66,2.56-5.5.23-.5,0-1.1-.5-1.32Z"/>
        <path class="cls-2" d="M382.36,866.85c-1.91-.64-3.82-1.3-5.71-1.97-.52-.18-1.09.09-1.28.61-.18.52.09,1.09.61,1.28,1.91.68,3.82,1.34,5.75,1.98.11.04.21.05.32.05.42,0,.81-.26.95-.68.18-.52-.11-1.09-.63-1.27Z"/>
        <path class="cls-2" d="M769.08,769.5c-1.37,1.46-2.76,2.92-4.16,4.36-.38.4-.38,1.03.02,1.41.19.19.45.28.7.28s.52-.1.72-.3c1.41-1.45,2.8-2.91,4.18-4.38.38-.4.36-1.04-.04-1.41-.4-.38-1.04-.36-1.41.04Z"/>
        <path class="cls-2" d="M747.61,790.58c-1.49,1.35-2.99,2.68-4.5,4-.42.36-.46,1-.09,1.41.2.23.47.34.75.34.23,0,.47-.08.66-.25,1.52-1.33,3.02-2.67,4.52-4.02.41-.37.44-1,.07-1.41s-1-.44-1.41-.07Z"/>
        <path class="cls-2" d="M785.76,753.05c.29,0,.58-.12.77-.36,1.29-1.56,2.56-3.13,3.81-4.71.34-.43.27-1.06-.16-1.41-.43-.34-1.06-.27-1.41.16-1.25,1.57-2.52,3.13-3.79,4.68-.35.43-.29,1.06.14,1.41.19.15.41.23.63.23Z"/>
        <path class="cls-2" d="M134.26,579.62c.34,1.99.69,3.98,1.06,5.96.09.48.51.82.98.82.06,0,.12,0,.19-.02.54-.1.9-.62.8-1.17-.37-1.97-.72-3.95-1.06-5.93-.09-.54-.61-.91-1.15-.82-.54.09-.91.61-.82,1.15Z"/>
        <path class="cls-2" d="M440.75,881.26c-1.98-.32-3.96-.66-5.94-1.01-.54-.1-1.06.26-1.16.81-.1.54.27,1.06.81,1.16,1.98.35,3.97.69,5.97,1.01.05,0,.11.01.16.01.48,0,.91-.35.99-.84.09-.54-.28-1.06-.83-1.15Z"/>
        <path class="cls-2" d="M271.6,806.84c-.43-.34-1.06-.27-1.4.17-.34.43-.27,1.06.17,1.4,1.58,1.25,3.18,2.49,4.79,3.71.18.14.39.21.61.21.3,0,.6-.14.8-.39.33-.44.25-1.07-.19-1.4-1.6-1.22-3.18-2.45-4.76-3.7Z"/>
        <path class="cls-2" d="M301.02,827.81c-1.69-1.09-3.38-2.19-5.05-3.3-.46-.31-1.08-.18-1.39.28-.31.46-.18,1.08.28,1.39,1.68,1.12,3.37,2.22,5.08,3.32.17.11.35.16.54.16.33,0,.65-.16.84-.46.3-.46.16-1.08-.3-1.38Z"/>
        <path class="cls-2" d="M354.2,856.08c-1.85-.8-3.69-1.61-5.53-2.43-.5-.22-1.1,0-1.32.5s0,1.1.5,1.32c1.84.83,3.7,1.64,5.56,2.45.13.05.26.08.4.08.39,0,.76-.23.92-.6.22-.51-.02-1.1-.52-1.31Z"/>
        <path class="cls-2" d="M327.03,843.03c-1.78-.94-3.55-1.9-5.3-2.88-.48-.27-1.09-.09-1.36.39-.27.48-.09,1.09.39,1.36,1.77.98,3.55,1.94,5.33,2.89.15.08.31.12.47.12.36,0,.7-.19.88-.53.26-.49.07-1.09-.41-1.35Z"/>
        <path class="cls-2" d="M699.92,827.19c-1.68,1.09-3.37,2.16-5.08,3.22-.47.29-.61.91-.32,1.38.19.3.52.47.85.47.18,0,.36-.05.53-.15,1.71-1.07,3.41-2.14,5.1-3.24.46-.3.6-.92.3-1.38-.3-.46-.92-.6-1.38-.3Z"/>
        <path class="cls-2" d="M470.63,884.84c-2-.16-4-.33-6-.52-.55-.07-1.04.35-1.09.9s.35,1.04.9,1.09c2.01.19,4.02.37,6.03.53.03,0,.05,0,.08,0,.52,0,.95-.4,1-.92.04-.55-.37-1.03-.92-1.08Z"/>
        <path class="cls-2" d="M590.1,874.92c-1.95.49-3.9.96-5.85,1.42-.54.13-.87.66-.75,1.2.11.46.52.77.97.77.08,0,.15,0,.23-.03,1.97-.46,3.93-.93,5.88-1.43.54-.13.86-.68.73-1.21-.13-.54-.68-.86-1.21-.73Z"/>
        <path class="cls-2" d="M646.97,855.56c-1.83.8-3.67,1.58-5.52,2.35-.51.21-.75.8-.54,1.31.16.38.53.62.92.62.13,0,.26-.02.38-.08,1.86-.77,3.71-1.56,5.55-2.36.51-.22.74-.81.52-1.32-.22-.51-.81-.74-1.32-.52Z"/>
        <path class="cls-2" d="M674.02,842.46c-1.76.95-3.54,1.88-5.32,2.79-.49.25-.68.86-.43,1.35.18.34.53.54.89.54.15,0,.31-.04.46-.11,1.79-.92,3.57-1.86,5.35-2.81.49-.26.67-.87.41-1.35-.26-.49-.87-.67-1.35-.41Z"/>
        <path class="cls-2" d="M530.77,884.74c-2,.17-4,.31-6,.45-.55.04-.97.51-.93,1.06.04.53.47.93,1,.93.02,0,.04,0,.07,0,2.02-.13,4.03-.28,6.04-.45.55-.05.96-.53.92-1.08-.05-.55-.54-.95-1.08-.92Z"/>
        <path class="cls-2" d="M724.51,809.86c-1.59,1.22-3.19,2.43-4.8,3.62-.44.33-.54.96-.21,1.4.2.26.5.4.8.4.21,0,.42-.06.6-.2,1.62-1.2,3.23-2.42,4.83-3.64.44-.34.52-.96.18-1.4-.33-.44-.96-.52-1.4-.18Z"/>
        <path class="cls-2" d="M560.63,881.05c-1.98.33-3.96.64-5.95.93-.55.08-.92.59-.84,1.14.07.5.5.85.99.85.05,0,.1,0,.15-.01,2-.3,3.99-.61,5.98-.94.54-.09.91-.6.82-1.15-.09-.54-.61-.92-1.15-.82Z"/>
        <path class="cls-2" d="M806.58,722.43c-1.12,1.67-2.25,3.33-3.4,4.98-.32.45-.2,1.08.25,1.39.17.12.37.18.57.18.32,0,.63-.15.82-.43,1.15-1.66,2.29-3.33,3.42-5,.31-.46.19-1.08-.27-1.39-.46-.31-1.08-.18-1.39.27Z"/>
        <path class="cls-2" d="M869.96,522.24h-.02c-.54,0-.99.44-1,.98v.81c-.05,2.01-.11,4.02-.18,6.02-.02.55.41,1.02.96,1.03.01,0,.02,0,.04,0,.54,0,.98-.42,1-.96.07-2.01.13-4.03.16-6.05v-.82c.02-.55-.42-1.01-.97-1.02Z"/>
        <path class="cls-2" d="M140.61,428.68c-.53-.13-1.08.2-1.21.74-.47,1.96-.93,3.92-1.38,5.9-.12.54.22,1.07.76,1.19.07.02.15.02.22.02.46,0,.87-.32.97-.78.44-1.96.9-3.92,1.37-5.86.13-.54-.2-1.08-.74-1.21Z"/>
        <path class="cls-2" d="M132.08,556.53c.55-.06.95-.55.89-1.1-.21-1.99-.4-3.99-.57-5.99-.05-.55-.52-.96-1.08-.91-.55.05-.96.53-.91,1.08.18,2.01.37,4.02.57,6.03.05.51.49.9.99.9.03,0,.07,0,.1,0Z"/>
        <path class="cls-2" d="M869.58,500.09s.03,0,.05,0c.55-.03.98-.5.95-1.05-.1-2.02-.21-4.03-.34-6.04-.04-.55-.52-.98-1.06-.93-.55.04-.97.51-.93,1.06.13,2,.24,4,.33,6.01.03.54.47.95,1,.95Z"/>
        <path class="cls-2" d="M868.24,553.18c-.55-.05-1.04.35-1.09.9-.2,2-.42,4-.65,5.99-.06.55.33,1.04.88,1.11.04,0,.08,0,.12,0,.5,0,.93-.38.99-.88.23-2,.45-4.01.65-6.02.05-.55-.35-1.04-.9-1.09Z"/>
        <path class="cls-2" d="M845.36,381.23c-.74-1.87-1.49-3.74-2.25-5.59-.21-.51-.8-.75-1.31-.54-.51.21-.75.8-.54,1.31.76,1.85,1.51,3.7,2.24,5.56.16.39.53.63.93.63.12,0,.25-.02.37-.07.51-.2.77-.78.56-1.3Z"/>
        <path class="cls-2" d="M151.14,637.54c-.18-.52-.75-.8-1.27-.62-.52.18-.8.75-.62,1.27.66,1.91,1.34,3.81,2.03,5.71.15.41.53.66.94.66.11,0,.23-.02.34-.06.52-.19.79-.76.6-1.28-.69-1.88-1.36-3.78-2.01-5.68Z"/>
        <path class="cls-2" d="M142.49,608.72c-.14-.54-.68-.86-1.22-.72-.54.14-.86.68-.72,1.22.5,1.96,1.02,3.91,1.55,5.85.12.44.52.74.96.74.09,0,.18-.01.26-.04.53-.15.85-.7.7-1.23-.53-1.93-1.04-3.87-1.54-5.82Z"/>
        <path class="cls-2" d="M193.23,724.91c.19,0,.39-.06.56-.17.46-.31.58-.93.27-1.39-1.12-1.66-2.23-3.33-3.33-5.01-.3-.46-.92-.59-1.38-.29-.46.3-.59.92-.29,1.38,1.1,1.69,2.22,3.37,3.34,5.03.19.29.51.44.83.44Z"/>
        <path class="cls-2" d="M208.18,742.85c-.34-.44-.97-.52-1.4-.18-.44.34-.52.97-.18,1.4,1.24,1.59,2.48,3.18,3.74,4.75.2.25.49.38.78.38.22,0,.44-.07.62-.22.43-.34.5-.97.16-1.41-1.25-1.57-2.5-3.14-3.72-4.73Z"/>
        <path class="cls-2" d="M867.05,470.02c.55-.07.93-.57.86-1.12-.26-2-.54-4-.83-6-.08-.55-.59-.93-1.13-.84-.55.08-.92.59-.84,1.13.29,1.98.56,3.97.82,5.96.07.5.5.87.99.87.04,0,.09,0,.13,0Z"/>
        <path class="cls-2" d="M861.83,440.29c.07,0,.14,0,.21-.02.54-.12.88-.65.77-1.19-.42-1.98-.86-3.95-1.31-5.91-.12-.54-.66-.87-1.2-.75-.54.12-.87.66-.75,1.2.45,1.95.89,3.91,1.31,5.88.1.47.51.79.98.79Z"/>
        <path class="cls-2" d="M248.74,787.24c-.4-.37-1.04-.35-1.41.05-.38.4-.35,1.04.05,1.41,1.48,1.37,2.97,2.74,4.47,4.09.19.17.43.26.67.26.27,0,.55-.11.74-.33.37-.41.34-1.04-.07-1.41-1.49-1.34-2.97-2.7-4.44-4.07Z"/>
        <path class="cls-2" d="M133.47,466.21s.09,0,.14,0c.49,0,.92-.36.99-.86.28-1.99.57-3.98.88-5.96.09-.55-.29-1.06-.83-1.14-.55-.09-1.06.29-1.14.83-.31,1.99-.61,3.99-.89,5.99-.08.55.3,1.05.85,1.13Z"/>
        <path class="cls-2" d="M848.59,641.33c-.52-.19-1.09.08-1.28.6-.68,1.9-1.38,3.79-2.09,5.67-.2.52.07,1.09.58,1.29.12.04.24.06.35.06.4,0,.78-.25.94-.65.72-1.89,1.42-3.79,2.1-5.7.19-.52-.08-1.09-.6-1.28Z"/>
        <path class="cls-2" d="M130.58,496.25s.04,0,.06,0c.53,0,.97-.41,1-.94.12-2.01.25-4.01.4-6.01.04-.55-.37-1.03-.92-1.07-.56-.05-1.03.37-1.07.92-.15,2.01-.28,4.02-.4,6.04-.03.55.39,1.02.94,1.06Z"/>
        <path class="cls-2" d="M148.99,399.69c-.53-.18-1.09.11-1.26.63-.63,1.91-1.25,3.84-1.85,5.76-.16.53.13,1.09.66,1.25.1.03.2.05.3.05.43,0,.82-.27.95-.7.6-1.92,1.21-3.83,1.84-5.73.17-.52-.11-1.09-.63-1.26Z"/>
        <path class="cls-2" d="M864.11,583.07c-.54-.11-1.06.26-1.16.8-.36,1.98-.74,3.95-1.13,5.92-.11.54.24,1.07.79,1.18.07.01.13.02.2.02.47,0,.88-.33.98-.8.39-1.98.77-3.96,1.14-5.95.1-.54-.26-1.06-.8-1.16Z"/>
        <path class="cls-2" d="M131.09,525.4c-.04-2-.07-4.01-.08-6.02,0-.55-.45-.99-1-.99h0c-.55,0-1,.45-.99,1.01.01,2.02.04,4.04.08,6.05.01.54.46.98,1,.98h.02c.55-.01.99-.47.98-1.02Z"/>
        <path class="cls-2" d="M645.47,313.93c-.45-.32-1.07-.22-1.4.23-.32.45-.22,1.07.23,1.4,1.62,1.16,3.24,2.35,4.83,3.55.18.14.39.2.6.2.3,0,.6-.14.8-.4.33-.44.25-1.07-.2-1.4-1.6-1.21-3.24-2.41-4.87-3.58Z"/>
        <path class="cls-2" d="M688.41,354.54c-.42.36-.47.99-.11,1.41,1.3,1.52,2.59,3.06,3.83,4.59.2.24.49.37.78.37.22,0,.45-.07.63-.22.43-.35.49-.98.14-1.41-1.26-1.54-2.56-3.1-3.87-4.63-.36-.42-.99-.47-1.41-.11Z"/>
        <path class="cls-2" d="M667.46,333.02c-.37.41-.35,1.04.06,1.41,1.47,1.35,2.94,2.73,4.36,4.1.19.19.44.28.69.28s.52-.1.72-.31c.38-.4.37-1.03-.03-1.41-1.44-1.38-2.92-2.78-4.4-4.14-.41-.37-1.04-.35-1.41.06Z"/>
        <path class="cls-2" d="M748,498.23s.05,0,.08,0c.55-.04.96-.53.92-1.08-.16-2.02-.34-4.04-.54-6.01-.06-.55-.54-.95-1.1-.89-.55.06-.95.55-.89,1.1.2,1.96.38,3.96.54,5.96.04.52.48.92,1,.92Z"/>
        <path class="cls-2" d="M636.89,723.56c-1.67,1.11-3.35,2.2-5.02,3.25-.47.29-.61.91-.31,1.38.19.3.52.47.85.47.18,0,.37-.05.53-.15,1.68-1.06,3.38-2.16,5.06-3.27.46-.31.58-.93.28-1.39-.31-.46-.93-.59-1.39-.28Z"/>
        <path class="cls-2" d="M747.74,521.23v.49c-.05,2.02-.11,4.03-.19,5.98-.02.55.4,1.02.96,1.04.02,0,.03,0,.04,0,.53,0,.97-.42,1-.96.09-1.97.15-4,.19-6.04v-.49c.02-.55-.42-1.01-.97-1.02-.54-.02-1.01.43-1.02.98Z"/>
        <path class="cls-2" d="M742.87,467.68c.1.47.51.8.98.8.07,0,.13,0,.2-.02.54-.11.89-.64.78-1.18-.39-1.95-.82-3.94-1.27-5.9-.12-.54-.66-.88-1.2-.75-.54.12-.88.66-.75,1.2.44,1.95.87,3.92,1.26,5.85Z"/>
        <path class="cls-2" d="M709.61,384.82c.19.3.51.47.85.47.18,0,.37-.05.53-.15.47-.3.61-.91.31-1.38-1.08-1.7-2.18-3.4-3.28-5.05-.31-.46-.93-.58-1.39-.28-.46.31-.58.93-.28,1.39,1.09,1.64,2.19,3.33,3.25,5.02Z"/>
        <path class="cls-2" d="M721.84,404.31c-.49.25-.69.85-.44,1.34.89,1.77,1.77,3.57,2.62,5.36.17.36.53.57.9.57.14,0,.29-.03.43-.1.5-.24.71-.83.47-1.33-.86-1.81-1.75-3.63-2.64-5.41-.25-.49-.85-.69-1.34-.44Z"/>
        <path class="cls-2" d="M733.82,431.84c-.52.19-.79.76-.6,1.28.67,1.85,1.33,3.76,1.96,5.66.14.42.53.68.95.68.1,0,.21-.02.32-.05.52-.17.81-.74.63-1.26-.64-1.92-1.3-3.83-1.97-5.7-.19-.52-.76-.79-1.28-.6Z"/>
        <path class="cls-2" d="M281.3,398.31c.15.08.32.12.48.12.35,0,.7-.19.88-.52.96-1.75,1.95-3.51,2.95-5.22.28-.48.12-1.09-.36-1.37-.48-.28-1.09-.11-1.37.36-1.01,1.73-2.01,3.5-2.97,5.27-.27.48-.09,1.09.4,1.36Z"/>
        <path class="cls-2" d="M316.1,349.45c.19.18.43.26.68.26.27,0,.54-.11.74-.32,1.34-1.46,2.72-2.93,4.1-4.36.38-.4.37-1.03-.03-1.41-.4-.38-1.03-.37-1.41.03-1.39,1.45-2.79,2.92-4.14,4.39-.37.41-.35,1.04.06,1.41Z"/>
        <path class="cls-2" d="M393.27,291.12c-1.8.85-3.62,1.74-5.41,2.64-.49.25-.69.85-.44,1.34.18.35.53.55.89.55.15,0,.3-.03.45-.11,1.77-.89,3.58-1.77,5.37-2.62.5-.24.71-.83.48-1.33-.24-.5-.83-.71-1.33-.48Z"/>
        <path class="cls-2" d="M380.32,736.16c.35,0,.7-.19.88-.52.27-.48.09-1.09-.4-1.36-1.75-.96-3.5-1.96-5.22-2.95-.48-.28-1.09-.12-1.37.36-.28.48-.12,1.09.36,1.37,1.73,1.01,3.5,2.01,5.26,2.98.15.08.32.12.48.12Z"/>
        <path class="cls-2" d="M342.38,323.23c-1.55,1.26-3.1,2.56-4.63,3.86-.42.36-.47.99-.11,1.41.2.23.48.35.76.35.23,0,.46-.08.65-.24,1.51-1.29,3.06-2.58,4.59-3.83.43-.35.49-.98.14-1.41-.35-.43-.98-.49-1.41-.14Z"/>
        <path class="cls-2" d="M297.81,373.02c.31,0,.62-.14.81-.42,1.16-1.61,2.36-3.24,3.56-4.82.33-.44.25-1.07-.19-1.4-.44-.33-1.07-.25-1.4.2-1.21,1.6-2.41,3.24-3.58,4.86-.32.45-.22,1.07.23,1.4.18.13.38.19.58.19Z"/>
        <path class="cls-2" d="M253.5,476.46c-.32,1.98-.62,3.98-.9,5.97-.08.55.31,1.05.85,1.13.05,0,.09,0,.14,0,.49,0,.92-.36.99-.86.27-1.97.57-3.96.89-5.92.09-.55-.28-1.06-.83-1.15-.55-.09-1.06.28-1.15.83Z"/>
        <path class="cls-2" d="M252.51,543.52s.07,0,.1,0c.55-.06.95-.55.89-1.1-.2-1.98-.38-3.99-.53-5.96-.04-.55-.53-.96-1.07-.92-.55.04-.96.52-.92,1.07.15,1.99.33,4.01.54,6.01.05.51.49.9.99.9Z"/>
        <path class="cls-2" d="M251.27,513.51c.54,0,.99-.44,1-.98v-.25c.04-1.92.1-3.83.18-5.74.02-.55-.41-1.02-.96-1.04-.54-.03-1.02.41-1.04.96-.08,1.92-.14,3.85-.18,5.79v.25c-.01.55.43,1.01.98,1.02h.02Z"/>
        <path class="cls-2" d="M259.25,454.09c.09.02.17.03.26.03.44,0,.85-.3.97-.74.51-1.91,1.05-3.85,1.6-5.77.15-.53-.15-1.09-.68-1.24-.53-.16-1.09.15-1.24.68-.56,1.93-1.1,3.89-1.62,5.81-.14.53.18,1.08.71,1.22Z"/>
        <path class="cls-2" d="M268.57,425.53c.12.05.25.07.37.07.4,0,.77-.24.93-.63.74-1.85,1.51-3.71,2.3-5.55.22-.51-.02-1.1-.52-1.31-.51-.22-1.1.02-1.31.52-.79,1.85-1.57,3.73-2.32,5.59-.21.51.04,1.09.56,1.3Z"/>
        <path class="cls-2" d="M519.33,764.04c-.55.04-.96.52-.92,1.07.04.52.48.92,1,.92.03,0,.05,0,.08,0,2.02-.16,4.04-.34,6.01-.54.55-.06.95-.55.89-1.1-.06-.55-.54-.94-1.1-.89-1.96.2-3.96.38-5.96.53Z"/>
        <path class="cls-2" d="M584.82,750.94c-.19-.52-.76-.79-1.28-.6-1.86.67-3.76,1.32-5.66,1.95-.52.17-.81.74-.63,1.26.14.42.53.69.95.69.1,0,.21-.02.31-.05,1.92-.63,3.84-1.3,5.71-1.97.52-.19.79-.76.6-1.28Z"/>
        <path class="cls-2" d="M612.36,739.01c-.25-.49-.85-.69-1.34-.44-1.75.88-3.56,1.76-5.37,2.62-.5.24-.71.83-.48,1.33.17.36.53.57.91.57.14,0,.29-.03.43-.1,1.82-.86,3.64-1.75,5.41-2.64.49-.25.69-.85.44-1.34Z"/>
        <path class="cls-2" d="M407.49,749.01c.4,0,.77-.24.93-.63.21-.51-.04-1.09-.56-1.3-1.84-.74-3.71-1.51-5.55-2.3-.51-.22-1.1.02-1.31.52-.22.51.02,1.1.52,1.31,1.85.79,3.73,1.58,5.59,2.32.12.05.25.07.37.07Z"/>
        <path class="cls-2" d="M624.7,302.69c.34,0,.68-.18.87-.5.28-.48.11-1.09-.36-1.37-1.75-1.02-3.52-2.02-5.27-2.97-.49-.27-1.09-.09-1.36.4-.27.48-.09,1.09.4,1.36,1.73.95,3.49,1.94,5.22,2.95.16.09.33.14.5.14Z"/>
        <path class="cls-2" d="M554.82,758.7c-1.95.44-3.92.86-5.86,1.25-.54.11-.89.64-.78,1.18.1.48.51.8.98.8.07,0,.13,0,.2-.02,1.96-.39,3.94-.82,5.9-1.26.54-.12.88-.66.76-1.2-.12-.54-.67-.88-1.2-.76Z"/>
        <path class="cls-2" d="M366.86,305.64c-1.68,1.06-3.38,2.16-5.06,3.28-.46.31-.58.93-.28,1.39.19.29.51.45.83.45.19,0,.38-.05.55-.17,1.66-1.1,3.35-2.2,5.02-3.25.47-.29.61-.91.31-1.38-.29-.47-.91-.61-1.38-.31Z"/>
        <path class="cls-2" d="M436,758.46c.44,0,.85-.3.97-.74.14-.53-.18-1.08-.71-1.22-1.94-.51-3.88-1.05-5.77-1.61-.53-.16-1.09.15-1.24.68-.15.53.15,1.09.68,1.24,1.91.56,3.86,1.1,5.81,1.62.09.02.17.03.26.03Z"/>
        <path class="cls-2" d="M488.38,765.51c-.02.55.4,1.02.96,1.04,1.97.08,3.96.14,5.93.18h.1s.02,0,.02,0c.54,0,.99-.43,1-.98.01-.55-.42-1.01-.98-1.02h-.13c-1.94-.04-3.91-.1-5.86-.18-.55-.03-1.02.4-1.04.96Z"/>
        <path class="cls-2" d="M458.51,762.33c-.09.55.28,1.06.83,1.15,1.97.32,3.98.63,5.97.9.05,0,.09,0,.14,0,.49,0,.92-.36.99-.86.08-.55-.31-1.05-.85-1.13-1.97-.27-3.96-.58-5.92-.9-.55-.09-1.06.28-1.15.83Z"/>
      </g>
      <g>
        <line class="cls-3" x1="500" y1="725" x2="500" y2="737"/>
        <line class="cls-4" x1="500" y1="796.74" x2="500" y2="934.13"/>
        <line class="cls-3" x1="500" y1="964" x2="500" y2="976"/>
      </g>
      <g>
        <line class="cls-3" x1="500" y1="11" x2="500" y2="23"/>
        <line class="cls-5" x1="500" y1="59.67" x2="500" y2="92.67"/>
        <line class="cls-3" x1="500" y1="111" x2="500" y2="123"/>
      </g>
    </g>
  </g>
</svg>