<svg xmlns="http://www.w3.org/2000/svg" id="stateCOA9" width="500" height="500" viewBox="0 0 200 200">
        <defs><clipPath id="vesicaPiscis_stateCOA9"><path d="M 100,0 C 63.9,20.4 41,58.5 41,100 c 0,41.5 22.9,79.6 59,100 36.1,-20.4 59,-58.5 59,-100 C 159,58.5 136.1,20.4 100,0 Z"/></clipPath><g id="inescutcheon_stateCOA9"><path transform="translate(66 66) scale(.34)" d="M 100,0 C 63.9,20.4 41,58.5 41,100 c 0,41.5 22.9,79.6 59,100 36.1,-20.4 59,-58.5 59,-100 C 159,58.5 136.1,20.4 100,0 Z"/></g><g id="mullet_stateCOA9"><polygon points="100 60 108.98 87.64 138.04 87.64 114.53 104.72 123.51 132.36 100 115.28 76.49 132.36 85.47 104.72 61.96 87.64 91.02 87.64"/></g><radialGradient id="backlight_stateCOA9" cx="100%" cy="100%" r="150%"><stop stop-color="#fff" stop-opacity=".3" offset="0"/><stop stop-color="#fff" stop-opacity=".15" offset=".25"/><stop stop-color="#000" stop-opacity="0" offset="1"/></radialGradient></defs>
        <g clip-path="url(#vesicaPiscis_stateCOA9)"><rect x="0" y="0" width="200" height="200" fill="#fafafa"/><g fill="#d7374a" stroke="#000"><use href="#inescutcheon_stateCOA9" transform="translate(-20.000000000000018 -20.000000000000018) scale(1.2000000000000002)"/></g><g fill="#ffe066" stroke="#000"><use href="#mullet_stateCOA9" transform="translate(39.99999999999999 39.99999999999999) scale(0.6000000000000001)"/></g></g>
        <path d="M 100,0 C 63.9,20.4 41,58.5 41,100 c 0,41.5 22.9,79.6 59,100 36.1,-20.4 59,-58.5 59,-100 C 159,58.5 136.1,20.4 100,0 Z" fill="url(#backlight_stateCOA9)" stroke="#333"/></svg>