<?xml version="1.0" encoding="utf-8"?>
<!-- Generator: Adobe Illustrator 27.4.1, SVG Export Plug-In . SVG Version: 6.00 Build 0)  -->
<svg version="1.1" id="Layer_1" xmlns="http://www.w3.org/2000/svg" xmlns:xlink="http://www.w3.org/1999/xlink" x="0px" y="0px"
	 viewBox="0 0 500 500" style="enable-background:new 0 0 500 500;" xml:space="preserve">
<style type="text/css">
	.st0{fill:#FFFFFF;}
</style>
<g>
	<path class="st0" d="M232.24,350.56c-6.17-34.98-33.82-62.63-68.8-68.8L79.79,267l83.66-14.76c34.98-6.17,62.63-33.82,68.8-68.8
		L247,99.79l14.76,83.66c6.17,34.98,33.82,62.63,68.8,68.8L414.21,267l-83.66,14.76c-34.98,6.17-62.63,33.82-68.8,68.8L247,434.21
		L232.24,350.56z"/>
	<path d="M247,102.66l14.27,80.87c6.21,35.19,34.02,63,69.2,69.2L411.34,267l-80.87,14.27c-35.19,6.21-63,34.02-69.2,69.2
		L247,431.34l-14.27-80.87c-6.21-35.19-34.02-63-69.2-69.2L82.66,267l80.87-14.27c35.19-6.21,63-34.02,69.2-69.2L247,102.66
		 M247,96.91l-15.25,86.45c-6.16,34.91-33.49,62.24-68.39,68.39L76.91,267l86.45,15.25c34.91,6.16,62.24,33.49,68.39,68.39
		L247,437.09l15.25-86.45c6.16-34.91,33.49-62.24,68.39-68.39L417.09,267l-86.45-15.25c-34.91-6.16-62.24-33.49-68.39-68.39
		L247,96.91L247,96.91z"/>
</g>
<g>
	<path class="st0" d="M354.1,195.51c-3.19-18.1-17.5-32.41-35.61-35.61l-41.7-7.36l41.7-7.36c18.1-3.19,32.41-17.5,35.61-35.61
		l7.36-41.7l7.36,41.7c3.19,18.1,17.5,32.41,35.61,35.61l41.7,7.36l-41.7,7.36c-18.1,3.19-32.41,17.5-35.61,35.61l-7.36,41.7
		L354.1,195.51z"/>
	<path d="M361.45,70.76l6.86,38.91c3.23,18.31,17.7,32.78,36.01,36.01l38.91,6.86l-38.91,6.86c-18.31,3.23-32.78,17.7-36.01,36.01
		l-6.86,38.91l-6.86-38.91c-3.23-18.31-17.7-32.78-36.01-36.01l-38.91-6.86l38.91-6.86c18.31-3.23,32.78-17.7,36.01-36.01
		L361.45,70.76 M361.45,65l-7.85,44.5c-3.17,17.97-17.24,32.03-35.2,35.2l-44.5,7.85l44.5,7.85c17.97,3.17,32.03,17.24,35.2,35.2
		l7.85,44.5l7.85-44.5c3.17-17.97,17.24-32.03,35.2-35.2l44.5-7.85l-44.5-7.85c-17.97-3.17-32.03-17.24-35.2-35.2L361.45,65
		L361.45,65z"/>
</g>
<g>
	<path class="st0" d="M143.88,120.27c-2.08-11.77-11.38-21.07-23.14-23.14l-25.95-4.58l25.95-4.58
		c11.77-2.08,21.07-11.38,23.14-23.14l4.58-25.95l4.58,25.95c2.08,11.77,11.38,21.07,23.14,23.14l25.95,4.58l-25.95,4.58
		c-11.77,2.08-21.07,11.38-23.14,23.14l-4.58,25.95L143.88,120.27z"/>
	<path d="M148.45,41.76l4.09,23.16c2.11,11.97,11.58,21.44,23.55,23.55l23.16,4.09l-23.16,4.09c-11.97,2.11-21.44,11.58-23.55,23.55
		l-4.09,23.16l-4.09-23.16c-2.11-11.97-11.58-21.44-23.55-23.55l-23.16-4.09l23.16-4.09c11.97-2.11,21.44-11.58,23.55-23.55
		L148.45,41.76 M148.45,36l-5.07,28.74c-2.05,11.6-11.13,20.69-22.74,22.74l-28.74,5.07l28.74,5.07
		c11.6,2.05,20.69,11.13,22.74,22.74l5.07,28.74l5.07-28.74c2.05-11.6,11.13-20.69,22.74-22.74L205,92.55l-28.74-5.07
		c-11.6-2.05-20.69-11.13-22.74-22.74L148.45,36L148.45,36z"/>
</g>
</svg>
